<svg xmlns="http://www.w3.org/2000/svg" viewBox="0 0 1000 1500" width="1000" height="1500">
  <defs>
    <linearGradient id="frameBg" x1="0%" y1="0%" x2="0%" y2="100%">
      <stop offset="0%" stop-color="#14201a"/>
      <stop offset="50%" stop-color="#0a100d"/>
      <stop offset="100%" stop-color="#040806"/>
    </linearGradient>
    <radialGradient id="sageBg" cx="50%" cy="50%" r="55%">
      <stop offset="0%" stop-color="#7a9a78"/>
      <stop offset="60%" stop-color="#506850"/>
      <stop offset="100%" stop-color="#2a3a2a"/>
    </radialGradient>
    <linearGradient id="paleGold" x1="0%" y1="0%" x2="100%" y2="100%">
      <stop offset="0%" stop-color="#8a7a40"/>
      <stop offset="50%" stop-color="#dac890"/>
      <stop offset="100%" stop-color="#a09060"/>
    </linearGradient>
    <radialGradient id="whiteShamRoot" cx="40%" cy="35%" r="70%">
      <stop offset="0%" stop-color="#ffffff"/>
      <stop offset="60%" stop-color="#dde5d8"/>
      <stop offset="100%" stop-color="#7a8a78"/>
    </radialGradient>
    <radialGradient id="moss" cx="40%" cy="35%" r="70%">
      <stop offset="0%" stop-color="#8aa088"/>
      <stop offset="60%" stop-color="#506850"/>
      <stop offset="100%" stop-color="#2a3a2a"/>
    </radialGradient>
  </defs>

  <path d="M 0,0 L 1000,0 L 1000,1500 L 0,1500 Z M 60,60 L 60,1440 L 940,1440 L 940,60 Z" fill="url(#frameBg)" fill-rule="evenodd"/>

  <g id="whiteShamrock">
    <path d="M0,4 C-2,-4 -10,-6 -10,2 C-10,8 -4,8 0,4 Z" fill="url(#whiteShamRoot)" stroke="#7a8a78" stroke-width="0.4"/>
    <path d="M0,4 C2,-4 10,-6 10,2 C10,8 4,8 0,4 Z" fill="url(#whiteShamRoot)" stroke="#7a8a78" stroke-width="0.4"/>
    <path d="M0,4 C-4,-2 -6,-10 0,-12 C6,-10 4,-2 0,4 Z" fill="url(#whiteShamRoot)" stroke="#7a8a78" stroke-width="0.4"/>
    <path d="M0,4 L0,18" stroke="#7a8a78" stroke-width="1"/>
    <circle cx="0" cy="2" r="0.8" fill="#7a8a78"/>
  </g>

  <g id="whiteShamrockOutline">
    <path d="M0,4 C-2,-4 -10,-6 -10,2 C-10,8 -4,8 0,4 Z" fill="none" stroke="url(#paleGold)" stroke-width="1.2"/>
    <path d="M0,4 C2,-4 10,-6 10,2 C10,8 4,8 0,4 Z" fill="none" stroke="url(#paleGold)" stroke-width="1.2"/>
    <path d="M0,4 C-4,-2 -6,-10 0,-12 C6,-10 4,-2 0,4 Z" fill="none" stroke="url(#paleGold)" stroke-width="1.2"/>
    <path d="M0,4 L0,18" stroke="url(#paleGold)" stroke-width="1"/>
  </g>

  <g id="simpleSwirl">
    <path d="M0,0 Q-10,-8 -20,-4 Q-30,0 -28,12" stroke="url(#paleGold)" stroke-width="2.2" fill="none"/>
    <path d="M-28,12 Q-26,18 -20,18" stroke="url(#paleGold)" stroke-width="2.2" fill="none"/>
    <circle cx="-20" cy="18" r="2" fill="url(#paleGold)"/>
    <path d="M0,0 Q10,-8 20,-4 Q30,0 28,12" stroke="url(#paleGold)" stroke-width="2.2" fill="none"/>
    <path d="M28,12 Q26,18 20,18" stroke="url(#paleGold)" stroke-width="2.2" fill="none"/>
    <circle cx="20" cy="18" r="2" fill="url(#paleGold)"/>
    <circle cx="0" cy="0" r="2.5" fill="url(#paleGold)"/>
  </g>

  <g id="runeStone">
    <ellipse cx="0" cy="0" rx="14" ry="18" fill="url(#sageBg)" stroke="#2a3a2a" stroke-width="0.8"/>
    <path d="M-4,-8 L4,-8 M0,-8 L0,8 M-4,8 L4,8" stroke="url(#paleGold)" stroke-width="0.8" fill="none"/>
    <path d="M-4,0 L4,0" stroke="url(#paleGold)" stroke-width="0.8"/>
    <path d="M-12,-12 Q0,-16 12,-12 Q14,0 12,12 Q0,16 -12,12 Q-14,0 -12,-12 Z" fill="none" stroke="#8aa088" stroke-width="0.5"/>
  </g>

  <g id="paleKnot">
    <path d="M0,0 C8,-8 24,-8 32,0 C40,8 56,8 64,0" stroke="url(#paleGold)" stroke-width="2.4" fill="none"/>
    <path d="M0,8 C8,16 24,16 32,8 C40,0 56,0 64,8" stroke="url(#paleGold)" stroke-width="2.4" fill="none"/>
    <path d="M0,4 C8,12 24,12 32,4 M32,4 C40,-4 56,-4 64,4" stroke="#8aa088" stroke-width="0.5" fill="none"/>
  </g>

  <g id="paleKnotV">
    <path d="M0,0 C-8,8 -8,24 0,32 C8,40 8,56 0,64" stroke="url(#paleGold)" stroke-width="2.4" fill="none"/>
    <path d="M8,0 C16,8 16,24 8,32 C0,40 0,56 8,64" stroke="url(#paleGold)" stroke-width="2.4" fill="none"/>
    <path d="M4,0 C12,8 12,24 4,32 M4,32 C-4,40 -4,56 4,64" stroke="#8aa088" stroke-width="0.5" fill="none"/>
  </g>

  <g id="mossLeaf">
    <ellipse cx="0" cy="-8" rx="4" ry="12" fill="url(#moss)" stroke="#2a3a2a" stroke-width="0.4"/>
    <path d="M0,0 L0,-18" stroke="#2a3a2a" stroke-width="0.4"/>
  </g>

  <!-- TOP -->
  <use href="#paleKnot" transform="translate(60,32)"/>
  <use href="#paleKnot" transform="translate(124,32)"/>
  <use href="#paleKnot" transform="translate(188,32)"/>
  <use href="#paleKnot" transform="translate(252,32)"/>
  <use href="#paleKnot" transform="translate(316,32)"/>
  <use href="#paleKnot" transform="translate(380,32)"/>
  <use href="#paleKnot" transform="translate(444,32)"/>
  <use href="#paleKnot" transform="translate(508,32)"/>
  <use href="#paleKnot" transform="translate(572,32)"/>
  <use href="#paleKnot" transform="translate(636,32)"/>
  <use href="#paleKnot" transform="translate(700,32)"/>
  <use href="#paleKnot" transform="translate(764,32)"/>
  <use href="#paleKnot" transform="translate(828,32)"/>
  <use href="#paleKnot" transform="translate(892,32)"/>
  <use href="#whiteShamrock" transform="translate(120,52) scale(1.4)"/>
  <use href="#whiteShamrock" transform="translate(240,52) scale(1.4)"/>
  <use href="#whiteShamrock" transform="translate(360,52) scale(1.4)"/>
  <use href="#whiteShamrock" transform="translate(480,52) scale(1.4)"/>
  <use href="#whiteShamrock" transform="translate(600,52) scale(1.4)"/>
  <use href="#whiteShamrock" transform="translate(720,52) scale(1.4)"/>
  <use href="#whiteShamrock" transform="translate(840,52) scale(1.4)"/>
  <use href="#whiteShamrockOutline" transform="translate(180,52) scale(1.3)"/>
  <use href="#whiteShamrockOutline" transform="translate(300,52) scale(1.3)"/>
  <use href="#whiteShamrockOutline" transform="translate(420,52) scale(1.3)"/>
  <use href="#whiteShamrockOutline" transform="translate(540,52) scale(1.3)"/>
  <use href="#whiteShamrockOutline" transform="translate(660,52) scale(1.3)"/>
  <use href="#whiteShamrockOutline" transform="translate(780,52) scale(1.3)"/>
  <use href="#whiteShamrockOutline" transform="translate(900,52) scale(1.3)"/>
  <use href="#simpleSwirl" transform="translate(200,18) scale(0.6)"/>
  <use href="#simpleSwirl" transform="translate(400,18) scale(0.6)"/>
  <use href="#simpleSwirl" transform="translate(600,18) scale(0.6)"/>
  <use href="#simpleSwirl" transform="translate(800,18) scale(0.6)"/>

  <!-- BOTTOM -->
  <use href="#paleKnot" transform="translate(60,1462)"/>
  <use href="#paleKnot" transform="translate(124,1462)"/>
  <use href="#paleKnot" transform="translate(188,1462)"/>
  <use href="#paleKnot" transform="translate(252,1462)"/>
  <use href="#paleKnot" transform="translate(316,1462)"/>
  <use href="#paleKnot" transform="translate(380,1462)"/>
  <use href="#paleKnot" transform="translate(444,1462)"/>
  <use href="#paleKnot" transform="translate(508,1462)"/>
  <use href="#paleKnot" transform="translate(572,1462)"/>
  <use href="#paleKnot" transform="translate(636,1462)"/>
  <use href="#paleKnot" transform="translate(700,1462)"/>
  <use href="#paleKnot" transform="translate(764,1462)"/>
  <use href="#paleKnot" transform="translate(828,1462)"/>
  <use href="#paleKnot" transform="translate(892,1462)"/>
  <use href="#whiteShamrock" transform="translate(120,1450) scale(1.4)"/>
  <use href="#whiteShamrock" transform="translate(240,1450) scale(1.4)"/>
  <use href="#whiteShamrock" transform="translate(360,1450) scale(1.4)"/>
  <use href="#whiteShamrock" transform="translate(480,1450) scale(1.4)"/>
  <use href="#whiteShamrock" transform="translate(600,1450) scale(1.4)"/>
  <use href="#whiteShamrock" transform="translate(720,1450) scale(1.4)"/>
  <use href="#whiteShamrock" transform="translate(840,1450) scale(1.4)"/>
  <use href="#whiteShamrockOutline" transform="translate(180,1450) scale(1.3)"/>
  <use href="#whiteShamrockOutline" transform="translate(300,1450) scale(1.3)"/>
  <use href="#whiteShamrockOutline" transform="translate(420,1450) scale(1.3)"/>
  <use href="#whiteShamrockOutline" transform="translate(540,1450) scale(1.3)"/>
  <use href="#whiteShamrockOutline" transform="translate(660,1450) scale(1.3)"/>
  <use href="#whiteShamrockOutline" transform="translate(780,1450) scale(1.3)"/>
  <use href="#whiteShamrockOutline" transform="translate(900,1450) scale(1.3)"/>
  <use href="#simpleSwirl" transform="translate(200,1482) scale(0.6)"/>
  <use href="#simpleSwirl" transform="translate(400,1482) scale(0.6)"/>
  <use href="#simpleSwirl" transform="translate(600,1482) scale(0.6)"/>
  <use href="#simpleSwirl" transform="translate(800,1482) scale(0.6)"/>

  <!-- LEFT -->
  <use href="#paleKnotV" transform="translate(28,60)"/>
  <use href="#paleKnotV" transform="translate(28,124)"/>
  <use href="#paleKnotV" transform="translate(28,188)"/>
  <use href="#paleKnotV" transform="translate(28,252)"/>
  <use href="#paleKnotV" transform="translate(28,316)"/>
  <use href="#paleKnotV" transform="translate(28,380)"/>
  <use href="#paleKnotV" transform="translate(28,444)"/>
  <use href="#paleKnotV" transform="translate(28,508)"/>
  <use href="#paleKnotV" transform="translate(28,572)"/>
  <use href="#paleKnotV" transform="translate(28,636)"/>
  <use href="#paleKnotV" transform="translate(28,700)"/>
  <use href="#paleKnotV" transform="translate(28,764)"/>
  <use href="#paleKnotV" transform="translate(28,828)"/>
  <use href="#paleKnotV" transform="translate(28,892)"/>
  <use href="#paleKnotV" transform="translate(28,956)"/>
  <use href="#paleKnotV" transform="translate(28,1020)"/>
  <use href="#paleKnotV" transform="translate(28,1084)"/>
  <use href="#paleKnotV" transform="translate(28,1148)"/>
  <use href="#paleKnotV" transform="translate(28,1212)"/>
  <use href="#paleKnotV" transform="translate(28,1276)"/>
  <use href="#paleKnotV" transform="translate(28,1340)"/>
  <use href="#whiteShamrock" transform="translate(52,150) scale(1.4)"/>
  <use href="#whiteShamrock" transform="translate(52,260) scale(1.4)"/>
  <use href="#whiteShamrock" transform="translate(52,370) scale(1.4)"/>
  <use href="#whiteShamrock" transform="translate(52,480) scale(1.4)"/>
  <use href="#whiteShamrock" transform="translate(52,590) scale(1.4)"/>
  <use href="#whiteShamrock" transform="translate(52,700) scale(1.4)"/>
  <use href="#whiteShamrock" transform="translate(52,810) scale(1.4)"/>
  <use href="#whiteShamrock" transform="translate(52,920) scale(1.4)"/>
  <use href="#whiteShamrock" transform="translate(52,1030) scale(1.4)"/>
  <use href="#whiteShamrock" transform="translate(52,1140) scale(1.4)"/>
  <use href="#whiteShamrock" transform="translate(52,1250) scale(1.4)"/>
  <use href="#whiteShamrock" transform="translate(52,1360) scale(1.4)"/>
  <use href="#runeStone" transform="translate(40,210)"/>
  <use href="#runeStone" transform="translate(40,420)"/>
  <use href="#runeStone" transform="translate(40,630)"/>
  <use href="#runeStone" transform="translate(40,840)"/>
  <use href="#runeStone" transform="translate(40,1050)"/>
  <use href="#runeStone" transform="translate(40,1260)"/>
  <use href="#mossLeaf" transform="translate(20,180)"/>
  <use href="#mossLeaf" transform="translate(20,380)"/>
  <use href="#mossLeaf" transform="translate(20,580)"/>
  <use href="#mossLeaf" transform="translate(20,780)"/>
  <use href="#mossLeaf" transform="translate(20,980)"/>
  <use href="#mossLeaf" transform="translate(20,1180)"/>
  <use href="#mossLeaf" transform="translate(20,1380)"/>

  <!-- RIGHT -->
  <use href="#paleKnotV" transform="translate(964,60)"/>
  <use href="#paleKnotV" transform="translate(964,124)"/>
  <use href="#paleKnotV" transform="translate(964,188)"/>
  <use href="#paleKnotV" transform="translate(964,252)"/>
  <use href="#paleKnotV" transform="translate(964,316)"/>
  <use href="#paleKnotV" transform="translate(964,380)"/>
  <use href="#paleKnotV" transform="translate(964,444)"/>
  <use href="#paleKnotV" transform="translate(964,508)"/>
  <use href="#paleKnotV" transform="translate(964,572)"/>
  <use href="#paleKnotV" transform="translate(964,636)"/>
  <use href="#paleKnotV" transform="translate(964,700)"/>
  <use href="#paleKnotV" transform="translate(964,764)"/>
  <use href="#paleKnotV" transform="translate(964,828)"/>
  <use href="#paleKnotV" transform="translate(964,892)"/>
  <use href="#paleKnotV" transform="translate(964,956)"/>
  <use href="#paleKnotV" transform="translate(964,1020)"/>
  <use href="#paleKnotV" transform="translate(964,1084)"/>
  <use href="#paleKnotV" transform="translate(964,1148)"/>
  <use href="#paleKnotV" transform="translate(964,1212)"/>
  <use href="#paleKnotV" transform="translate(964,1276)"/>
  <use href="#paleKnotV" transform="translate(964,1340)"/>
  <use href="#whiteShamrock" transform="translate(948,150) scale(1.4)"/>
  <use href="#whiteShamrock" transform="translate(948,260) scale(1.4)"/>
  <use href="#whiteShamrock" transform="translate(948,370) scale(1.4)"/>
  <use href="#whiteShamrock" transform="translate(948,480) scale(1.4)"/>
  <use href="#whiteShamrock" transform="translate(948,590) scale(1.4)"/>
  <use href="#whiteShamrock" transform="translate(948,700) scale(1.4)"/>
  <use href="#whiteShamrock" transform="translate(948,810) scale(1.4)"/>
  <use href="#whiteShamrock" transform="translate(948,920) scale(1.4)"/>
  <use href="#whiteShamrock" transform="translate(948,1030) scale(1.4)"/>
  <use href="#whiteShamrock" transform="translate(948,1140) scale(1.4)"/>
  <use href="#whiteShamrock" transform="translate(948,1250) scale(1.4)"/>
  <use href="#whiteShamrock" transform="translate(948,1360) scale(1.4)"/>
  <use href="#runeStone" transform="translate(960,210)"/>
  <use href="#runeStone" transform="translate(960,420)"/>
  <use href="#runeStone" transform="translate(960,630)"/>
  <use href="#runeStone" transform="translate(960,840)"/>
  <use href="#runeStone" transform="translate(960,1050)"/>
  <use href="#runeStone" transform="translate(960,1260)"/>
  <use href="#mossLeaf" transform="translate(980,180)"/>
  <use href="#mossLeaf" transform="translate(980,380)"/>
  <use href="#mossLeaf" transform="translate(980,580)"/>
  <use href="#mossLeaf" transform="translate(980,780)"/>
  <use href="#mossLeaf" transform="translate(980,980)"/>
  <use href="#mossLeaf" transform="translate(980,1180)"/>
  <use href="#mossLeaf" transform="translate(980,1380)"/>

  <!-- CORNERS -->
  <g transform="translate(36,36)">
    <use href="#runeStone" transform="translate(12,12) scale(1.4)"/>
    <use href="#whiteShamrock" transform="translate(46,12) scale(1.8)"/>
    <use href="#whiteShamrock" transform="translate(12,46) scale(1.8)"/>
    <use href="#simpleSwirl" transform="translate(36,40)"/>
  </g>
  <g transform="translate(964,36)">
    <use href="#runeStone" transform="translate(-12,12) scale(1.4)"/>
    <use href="#whiteShamrock" transform="translate(-46,12) scale(1.8)"/>
    <use href="#whiteShamrock" transform="translate(-12,46) scale(1.8)"/>
    <use href="#simpleSwirl" transform="translate(-36,40)"/>
  </g>
  <g transform="translate(36,1464)">
    <use href="#runeStone" transform="translate(12,-12) scale(1.4)"/>
    <use href="#whiteShamrock" transform="translate(46,-12) scale(1.8)"/>
    <use href="#whiteShamrock" transform="translate(12,-46) scale(1.8)"/>
    <use href="#simpleSwirl" transform="translate(36,-40)"/>
  </g>
  <g transform="translate(964,1464)">
    <use href="#runeStone" transform="translate(-12,-12) scale(1.4)"/>
    <use href="#whiteShamrock" transform="translate(-46,-12) scale(1.8)"/>
    <use href="#whiteShamrock" transform="translate(-12,-46) scale(1.8)"/>
    <use href="#simpleSwirl" transform="translate(-36,-40)"/>
  </g>

  <path d="M60,55 L940,55 M60,1445 L940,1445 M55,60 L55,1440 M945,60 L945,1440" stroke="url(#paleGold)" stroke-width="1.4" fill="none"/>
</svg>
